NOTE:
------------
AUDIO is synchronized 

We fixed the audio, sorry if the previous releases there is a gap 


 
A suburban family moves to a new neighborhood with their large yet lovable Great Dane, who has a tendency to wreak havoc in his own oblivious way.


 
Video
Format : xvid
Codec ID : xvid
Duration : 1h 22mn
Bit rate : 1 496 Kbps
Width : 720 pixels
Height : 304 pixels
Display aspect ratio : 2.35:1
Frame rate : 25.000 fps
Bits/(Pixel*Frame) : 0.273
Stream size : 888 MiB (95%)

Audio
ID : 1
Format : MPEG Audio
Format version : Version 1
Format profile : Layer 2
Codec ID : 50
Duration : 1h 22mn
Bit rate mode : Constant
Bit rate : 64.0 Kbps
Channel(s) : 2 channels
Sampling rate : 44.1 KHz
Stream size : 38.0 MiB (4%)
Alignment : Aligned on interleaves
Interleave, duration : 26 ms (0.65 video frame)
Interleave, preload duration : 26 ms


Screenshots
 
http://postimg.com/image/18000/17399.jpg
 
http://postimg.com/image/18000/17400.jpg

